<?xml version="1.0" encoding="utf-8"?>
<!-- Generator: Adobe Illustrator 23.0.2, SVG Export Plug-In . SVG Version: 6.00 Build 0)  -->
<svg version="1.1" id="Laag_1" xmlns="http://www.w3.org/2000/svg" xmlns:xlink="http://www.w3.org/1999/xlink" x="0px" y="0px"
	 viewBox="0 0 38 38" style="enable-background:new 0 0 38 38;" xml:space="preserve">
<g>
	<path d="M26.9,15.33c0.51-0.2,0.97-0.46,1.47-0.55c1.23-0.23,2.29,0.2,3.14,1.09c0.26,0.27,0.49,0.42,0.87,0.39
		c0.46-0.03,0.93-0.01,1.46-0.01c-0.17-0.43-0.32-0.83-0.49-1.26c0.63-0.24,1.2-0.56,1.68-1.05c0.47-0.48,0.8-1.04,1.03-1.75
		c0.25,0.48,0.48,0.89,0.68,1.32c0.6,1.33,1.02,2.71,1.24,4.14c0.15,1-0.44,2.16-1.71,2.21c-1.41,0.05-2.82,0.06-4.22,0.06
		c-0.28,0-0.48,0.07-0.7,0.24c-2.06,1.69-4.13,3.36-6.19,5.05c-0.85,0.69-1.69,1.4-2.53,2.11c-0.78,0.65-1.67,0.98-2.68,0.98
		c-5.81,0-11.63,0-17.44,0c-0.9,0-1.66-0.28-2.1-1.12c-0.47-0.9-0.43-1.8,0.14-2.65c0.45-0.66,1.12-0.88,1.89-0.89
		c0.58,0,1.16-0.01,1.74,0c0.17,0,0.24-0.06,0.34-0.2c0.19-0.28,0.39-0.57,0.65-0.77c2.38-1.89,4.76-3.76,7.16-5.62
		c0.35-0.27,0.75-0.48,1.15-0.66c0.66-0.28,1.3-0.16,1.89,0.24c1.72,1.18,3.39,2.42,4.88,3.88c0.14,0.14,0.23,0.15,0.39,0.03
		c1.05-0.85,2.11-1.7,3.18-2.54c0.17-0.14,0.13-0.24,0.05-0.39c-0.85-1.67-1.47-3.42-1.66-5.29c-0.07-0.69-0.09-1.41-0.03-2.1
		c0.08-0.94,0.89-1.63,1.83-1.58c1.49,0.08,2.97,0.2,4.51,0.31c-0.64,1.22-0.72,2.44-0.22,3.7c-0.77-0.07-1.5-0.14-2.24-0.2
		C25.97,12.92,26.51,14.69,26.9,15.33z M11.49,23.56c0.01,0.02,0.03,0.04,0.04,0.06c1.74,0,3.48,0,5.22,0
		c0.02-0.03,0.03-0.06,0.05-0.09c-0.87-0.69-1.73-1.39-2.61-2.09C13.27,22.16,12.38,22.86,11.49,23.56z"/>
	<path d="M35.8,10.81c-0.02,1.98-1.68,3.64-3.63,3.62c-1.97-0.02-3.62-1.68-3.61-3.63c0.01-1.96,1.67-3.62,3.63-3.62
		C34.16,7.18,35.82,8.85,35.8,10.81z"/>
</g>
</svg>
