<?xml version="1.0" encoding="utf-8"?>
<!-- Generator: Adobe Illustrator 23.0.2, SVG Export Plug-In . SVG Version: 6.00 Build 0)  -->
<svg version="1.1" id="Layer_1" xmlns="http://www.w3.org/2000/svg" xmlns:xlink="http://www.w3.org/1999/xlink" x="0px" y="0px"
	 viewBox="0 0 2012 512"  height="100" width="1200" preserveAspectRatio="none" style="enable-background:new 0 0 2012 512;" xml:space="preserve">
<style type="text/css">
	.st0{fill:#F69900;}
	.st1{display:none;}
	.st2{display:inline;}
	.st3{fill:none;stroke:#000000;stroke-width:10;stroke-linecap:round;stroke-linejoin:round;stroke-miterlimit:10;}
	.st4{fill:none;stroke:#000000;stroke-width:10;stroke-miterlimit:10;}
</style>
<rect x="1505.8" y="63.3" class="st0" width="79" height="438.3"/>
<rect x="1309.1" y="24.8" class="st0" width="93.5" height="475.6"/>
<rect x="1405.5" y="79.2" class="st0" width="93.5" height="421.2"/>
<rect x="1214.8" y="46.5" class="st0" width="93.5" height="455.1"/>
<rect x="1009.2" y="63.9" class="st0" width="79" height="438.3"/>
<rect x="1093.3" y="5.6" class="st0" width="118.1" height="496.6"/>
<rect x="810.6" y="25.4" class="st0" width="93.5" height="475.6"/>
<rect x="907.9" y="79.8" class="st0" width="93.5" height="421.2"/>
<rect x="510.5" y="63.9" class="st0" width="79" height="438.3"/>
<rect x="594.5" y="5.2" class="st0" width="118.1" height="497"/>
<rect x="718.3" y="47.1" class="st0" width="93.5" height="455.1"/>
<rect x="9.4" y="62.7" class="st0" width="79" height="438.3"/>
<rect x="93.5" y="8.5" class="st0" width="118.1" height="492.5"/>
<rect x="217.2" y="45.9" class="st0" width="93.5" height="455.1"/>
<rect x="311.9" y="25.4" class="st0" width="93.5" height="475.6"/>
<rect x="409.2" y="79.8" class="st0" width="93.5" height="421.2"/>
<g class="st1">
	<g class="st2">
		<path d="M366.9,170.7h-17.1c-4.7,0-8.5,3.8-8.5,8.5s3.8,8.5,8.5,8.5h17.1c4.7,0,8.5-3.8,8.5-8.5S371.6,170.7,366.9,170.7z"/>
		<path d="M366.9,204.8h-17.1c-4.7,0-8.5,3.8-8.5,8.5s3.8,8.5,8.5,8.5h17.1c4.7,0,8.5-3.8,8.5-8.5
			C375.5,208.6,371.6,204.8,366.9,204.8z"/>
		<path d="M366.9,136.5h-17.1c-4.7,0-8.5,3.8-8.5,8.5s3.8,8.5,8.5,8.5h17.1c4.7,0,8.5-3.8,8.5-8.5
			C375.5,140.4,371.6,136.5,366.9,136.5z"/>
		<path d="M366.9,409.6h-17.1c-4.7,0-8.5,3.8-8.5,8.5s3.8,8.5,8.5,8.5h17.1c4.7,0,8.5-3.8,8.5-8.5S371.6,409.6,366.9,409.6z"/>
		<path d="M179.2,136.5H128c-4.7,0-8.5,3.8-8.5,8.5v119.5c0,4.7,3.8,8.5,8.5,8.5h51.2c4.7,0,8.5-3.8,8.5-8.5V145.1
			C187.7,140.4,183.9,136.5,179.2,136.5z M170.7,256h-34.1V153.6h34.1L170.7,256L170.7,256z"/>
		<path d="M179.2,409.6H128c-4.7,0-8.5,3.8-8.5,8.5s3.8,8.5,8.5,8.5h51.2c4.7,0,8.5-3.8,8.5-8.5S183.9,409.6,179.2,409.6z"/>
		<path d="M179.2,443.7H128c-4.7,0-8.5,3.8-8.5,8.5s3.8,8.5,8.5,8.5h51.2c4.7,0,8.5-3.8,8.5-8.5S183.9,443.7,179.2,443.7z"/>
		<path d="M366.9,443.7h-17.1c-4.7,0-8.5,3.8-8.5,8.5s3.8,8.5,8.5,8.5h17.1c4.7,0,8.5-3.8,8.5-8.5
			C375.5,447.6,371.6,443.7,366.9,443.7z"/>
		<path d="M469.3,443.7h-34.1c-4.7,0-8.5,3.8-8.5,8.5s3.8,8.5,8.5,8.5h34.1c4.7,0,8.5-3.8,8.5-8.5
			C477.9,447.6,474,443.7,469.3,443.7z"/>
		<path d="M290.1,145.1c0-4.7-3.8-8.5-8.5-8.5h-34.1c-4.7,0-8.5,3.8-8.5,8.5v119.5c0,4.7,3.8,8.5,8.5,8.5h34.1
			c4.7,0,8.5-3.8,8.5-8.5V145.1z M273.1,256H256V153.6h17.1V256z"/>
		<path d="M469.3,409.6h-34.1c-4.7,0-8.5,3.8-8.5,8.5s3.8,8.5,8.5,8.5h34.1c4.7,0,8.5-3.8,8.5-8.5S474,409.6,469.3,409.6z"/>
		<path d="M281.6,443.7h-34.1c-4.7,0-8.5,3.8-8.5,8.5s3.8,8.5,8.5,8.5h34.1c4.7,0,8.5-3.8,8.5-8.5S286.3,443.7,281.6,443.7z"/>
		<path d="M435.2,307.2c4.7,0,8.5-3.8,8.5-8.5v-85.3c0-4.7-3.8-8.5-8.5-8.5s-8.5,3.8-8.5,8.5v85.3
			C426.7,303.4,430.5,307.2,435.2,307.2z"/>
		<path d="M477.9,213.3c0-4.7-3.8-8.5-8.5-8.5s-8.5,3.8-8.5,8.5v85.3c0,4.7,3.8,8.5,8.5,8.5s8.5-3.8,8.5-8.5V213.3z"/>
		<path d="M486.4,68.3h-51.2c-4.7,0-8.5,3.8-8.5,8.5s3.8,8.5,8.5,8.5h51.2c4.7,0,8.5,3.8,8.5,8.5v392.5c0,4.7-3.8,8.5-8.5,8.5h-76.8
			V136.5h51.2c4.7,0,8.5-3.8,8.5-8.5s-3.8-8.5-8.5-8.5h-51.2V42.7c0-14.4-11.2-25.6-25.6-25.6h-51.2c-14.1,0-25.6,11.5-25.6,25.6
			V495h-85.3V51.2h59.7c4.7,0,8.5-3.8,8.5-8.5s-3.8-8.5-8.5-8.5h-59.7v-8.5c0-14.4-11.2-25.6-25.6-25.6H111
			C96.8,0,85.3,11.5,85.3,25.6v76.8H42.7c-4.7,0-8.5,3.8-8.5,8.5s3.8,8.5,8.5,8.5h42.7v375.5H25.6c-4.7,0-8.5-3.8-8.5-8.5V76.8
			c0-4.7,3.8-8.5,8.5-8.5h34.1c4.7,0,8.5-3.8,8.5-8.5s-3.8-8.5-8.5-8.5H25.6C11.5,51.2,0,62.7,0,76.8v409.6
			C0,500.5,11.5,512,25.6,512h460.8c14.1,0,25.6-11.5,25.6-25.6V93.9C512,79.8,500.5,68.3,486.4,68.3z M204.8,494.9H102.4V68.3h76.8
			c4.7,0,8.5-3.8,8.5-8.5s-3.8-8.5-8.5-8.5h-76.8V25.6c0-4.8,3.7-8.5,8.5-8.5h85.3c4.9,0,8.5,3.7,8.5,8.5L204.8,494.9L204.8,494.9z
			 M392.5,494.9h-68.3V85.3h42.7c4.7,0,8.5-3.8,8.5-8.5s-3.8-8.5-8.5-8.5h-42.7V42.7c0-4.8,3.7-8.5,8.5-8.5H384
			c4.9,0,8.5,3.7,8.5,8.5V494.9z"/>
		<path d="M59.7,409.6h-17c-4.7,0-8.5,3.8-8.5,8.5s3.8,8.5,8.5,8.5h17.1c4.7,0,8.5-3.8,8.5-8.5S64.4,409.6,59.7,409.6z"/>
		<path d="M59.7,443.7h-17c-4.7,0-8.5,3.8-8.5,8.5s3.8,8.5,8.5,8.5h17.1c4.7,0,8.5-3.8,8.5-8.5S64.4,443.7,59.7,443.7z"/>
		<path d="M281.6,409.6h-34.1c-4.7,0-8.5,3.8-8.5,8.5s3.8,8.5,8.5,8.5h34.1c4.7,0,8.5-3.8,8.5-8.5S286.3,409.6,281.6,409.6z"/>
		<path d="M59.7,204.8h-17c-4.7,0-8.5,3.8-8.5,8.5s3.8,8.5,8.5,8.5h17.1c4.7,0,8.5-3.8,8.5-8.5S64.4,204.8,59.7,204.8z"/>
		<path d="M59.7,238.9h-17c-4.7,0-8.5,3.8-8.5,8.5s3.8,8.5,8.5,8.5h17.1c4.7,0,8.5-3.8,8.5-8.5S64.4,238.9,59.7,238.9z"/>
	</g>
</g>
<g>
	<path class="st3" d="M66.6,62.7H19.8c-8.5,0-15.3,6.8-15.3,15.2v413.3c0,8.4,6.8,15.2,15.3,15.2h471.4c8.5,0,15.3-6.8,15.3-15.2V95
		c0-8.4-6.8-15.2-15.3-15.2h-64"/>
	<g>
		<path d="M195.2,8.5c9.1,0,16.4,7.3,16.4,16.3v459.9c0,9-7.3,16.3-16.4,16.3h-85.3c-9.1,0-16.4-7.3-16.4-16.3V24.8
			c0-9,7.3-16.3,16.4-16.3H195.2 M195.2-1.5h-85.3c-14.6,0-26.5,11.8-26.5,26.3v459.9c0,14.5,11.9,26.3,26.5,26.3h85.3
			c14.6,0,26.5-11.8,26.5-26.3V24.8C221.7,10.3,209.8-1.5,195.2-1.5L195.2-1.5z"/>
	</g>
	<g>
		<path d="M388.1,25.4c6.7,0,12.3,5.5,12.3,12.2v451.2c0,6.7-5.5,12.2-12.3,12.2h-59c-6.7,0-12.3-5.5-12.3-12.2V37.6
			c0-6.7,5.5-12.2,12.3-12.2L388.1,25.4 M388.1,15.4h-59c-12.3,0-22.3,10-22.3,22.2v451.2c0,12.2,10.1,22.2,22.3,22.2h59
			c12.3,0,22.3-10,22.3-22.2V37.6C410.4,25.4,400.4,15.4,388.1,15.4L388.1,15.4z"/>
	</g>
	<line class="st3" x1="283.6" y1="45.9" x2="218.2" y2="45.9"/>
	<line class="st3" x1="174" y1="62.7" x2="94.9" y2="62.7"/>
	<line class="st3" x1="88.4" y1="111.9" x2="40.2" y2="111.9"/>
	<path class="st4" d="M316.8,78.9"/>
	<line class="st3" x1="366.1" y1="78.9" x2="316.8" y2="78.9"/>
	<line class="st3" x1="469.6" y1="129.9" x2="408.4" y2="129.9"/>
	<g>
		<path d="M280.6,148.1v119.5h-32.7V148.1H280.6 M280.6,138.1h-32.7c-5.5,0-10.1,4.5-10.1,10v119.5c0,5.5,4.5,10,10.1,10h32.7
			c5.5,0,10.1-4.5,10.1-10V148.1C290.7,142.5,286.2,138.1,280.6,138.1L280.6,138.1z"/>
	</g>
	<line class="st3" x1="36.1" y1="216.3" x2="54.2" y2="216.3"/>
	<line class="st3" x1="36.1" y1="249.9" x2="54.2" y2="249.9"/>
	<g>
		<path d="M471.7,207.8v119.5H439V207.8H471.7 M471.7,197.8H439c-5.5,0-10.1,4.5-10.1,10v119.5c0,5.5,4.5,10,10.1,10h32.7
			c5.5,0,10.1-4.5,10.1-10V207.8C481.7,202.3,477.2,197.8,471.7,197.8L471.7,197.8z"/>
	</g>
	<line class="st3" x1="36.1" y1="418.1" x2="54.2" y2="418.1"/>
	<line class="st3" x1="36.1" y1="451.7" x2="54.2" y2="451.7"/>
	<line class="st3" x1="130.9" y1="418.1" x2="171.8" y2="418.1"/>
	<line class="st3" x1="130.9" y1="451.7" x2="171.8" y2="451.7"/>
	<line class="st3" x1="248.9" y1="418.1" x2="276.1" y2="418.1"/>
	<line class="st3" x1="248.9" y1="451.7" x2="276.1" y2="451.7"/>
	<line class="st3" x1="349.4" y1="418.1" x2="367.6" y2="418.1"/>
	<line class="st3" x1="349.4" y1="451.7" x2="367.6" y2="451.7"/>
	<line class="st3" x1="437.4" y1="418.1" x2="463" y2="418.1"/>
	<line class="st3" x1="437.4" y1="451.7" x2="463" y2="451.7"/>
</g>
<g>
	<path class="st3" d="M568.2,62.7h-46.5c-8.4,0-15.2,6.8-15.2,15.2v413.3c0,8.4,6.8,15.2,15.2,15.2h468.5c8.4,0,15.2-6.8,15.2-15.2
		V95c0-8.4-6.8-15.2-15.2-15.2h-63.6"/>
	<g>
		<path d="M696,8.5c9,0,16.3,7.3,16.3,16.3v459.9c0,9-7.3,16.3-16.3,16.3h-84.8c-9,0-16.3-7.3-16.3-16.3V24.8
			c0-9,7.3-16.3,16.3-16.3H696 M696-1.5h-84.8c-14.5,0-26.3,11.8-26.3,26.3v459.9c0,14.5,11.8,26.3,26.3,26.3H696
			c14.5,0,26.3-11.8,26.3-26.3V24.8C722.3,10.3,710.5-1.5,696-1.5L696-1.5z"/>
	</g>
	<g>
		<path d="M887.7,25.4c6.7,0,12.2,5.5,12.2,12.2v451.2c0,6.7-5.5,12.2-12.2,12.2h-58.6c-6.7,0-12.2-5.5-12.2-12.2V37.6
			c0-6.7,5.5-12.2,12.2-12.2L887.7,25.4 M887.7,15.4h-58.6c-12.2,0-22.2,10-22.2,22.2v451.2c0,12.2,10,22.2,22.2,22.2h58.6
			c12.2,0,22.2-10,22.2-22.2V37.6C909.9,25.4,900,15.4,887.7,15.4L887.7,15.4z"/>
	</g>
	<line class="st3" x1="783.9" y1="45.9" x2="718.9" y2="45.9"/>
	<line class="st3" x1="674.9" y1="62.7" x2="596.3" y2="62.7"/>
	<line class="st3" x1="589.9" y1="111.9" x2="541.9" y2="111.9"/>
	<path class="st4" d="M816.9,78.9"/>
	<line class="st3" x1="865.9" y1="78.9" x2="816.9" y2="78.9"/>
	<line class="st3" x1="968.7" y1="129.9" x2="907.9" y2="129.9"/>
	<g>
		<path d="M780.9,148.1v119.5h-32.5V148.1H780.9 M780.9,138.1h-32.5c-5.5,0-10,4.5-10,10v119.5c0,5.5,4.5,10,10,10h32.5
			c5.5,0,10-4.5,10-10V148.1C790.9,142.5,786.4,138.1,780.9,138.1L780.9,138.1z"/>
	</g>
	<line class="st3" x1="537.9" y1="216.3" x2="555.9" y2="216.3"/>
	<line class="st3" x1="537.9" y1="249.9" x2="555.9" y2="249.9"/>
	<g>
		<path d="M970.8,207.8v119.5h-32.5V207.8H970.8 M970.8,197.8h-32.5c-5.5,0-10,4.5-10,10v119.5c0,5.5,4.5,10,10,10h32.5
			c5.5,0,10-4.5,10-10V207.8C980.8,202.3,976.3,197.8,970.8,197.8L970.8,197.8z"/>
	</g>
	<line class="st3" x1="537.9" y1="418.1" x2="555.9" y2="418.1"/>
	<line class="st3" x1="537.9" y1="451.7" x2="555.9" y2="451.7"/>
	<line class="st3" x1="632.2" y1="418.1" x2="672.7" y2="418.1"/>
	<line class="st3" x1="632.2" y1="451.7" x2="672.7" y2="451.7"/>
	<line class="st3" x1="749.4" y1="418.1" x2="776.4" y2="418.1"/>
	<line class="st3" x1="749.4" y1="451.7" x2="776.4" y2="451.7"/>
	<line class="st3" x1="849.3" y1="418.1" x2="867.3" y2="418.1"/>
	<line class="st3" x1="849.3" y1="451.7" x2="867.3" y2="451.7"/>
	<line class="st3" x1="936.7" y1="418.1" x2="962.2" y2="418.1"/>
	<line class="st3" x1="936.7" y1="451.7" x2="962.2" y2="451.7"/>
</g>
<g>
	<path class="st3" d="M1067.1,62.7h-46.5c-8.4,0-15.2,6.8-15.2,15.2v413.3c0,8.4,6.8,15.2,15.2,15.2h468.5c8.4,0,15.2-6.8,15.2-15.2
		V95c0-8.4-6.8-15.2-15.2-15.2h-63.6"/>
	<g>
		<path d="M1194.9,8.5c9,0,16.3,7.3,16.3,16.3v459.9c0,9-7.3,16.3-16.3,16.3h-84.8c-9,0-16.3-7.3-16.3-16.3V24.8
			c0-9,7.3-16.3,16.3-16.3H1194.9 M1194.9-1.5h-84.8c-14.5,0-26.3,11.8-26.3,26.3v459.9c0,14.5,11.8,26.3,26.3,26.3h84.8
			c14.5,0,26.3-11.8,26.3-26.3V24.8C1221.2,10.3,1209.4-1.5,1194.9-1.5L1194.9-1.5z"/>
	</g>
	<g>
		<path d="M1386.6,25.4c6.7,0,12.2,5.5,12.2,12.2v451.2c0,6.7-5.5,12.2-12.2,12.2H1328c-6.7,0-12.2-5.5-12.2-12.2V37.6
			c0-6.7,5.5-12.2,12.2-12.2L1386.6,25.4 M1386.6,15.4H1328c-12.2,0-22.2,10-22.2,22.2v451.2c0,12.2,10,22.2,22.2,22.2h58.6
			c12.2,0,22.2-10,22.2-22.2V37.6C1408.8,25.4,1398.9,15.4,1386.6,15.4L1386.6,15.4z"/>
	</g>
	<line class="st3" x1="1282.8" y1="45.9" x2="1217.8" y2="45.9"/>
	<line class="st3" x1="1173.8" y1="62.7" x2="1095.2" y2="62.7"/>
	<line class="st3" x1="1088.8" y1="111.9" x2="1040.8" y2="111.9"/>
	<path class="st4" d="M1315.8,78.9"/>
	<line class="st3" x1="1364.8" y1="78.9" x2="1315.8" y2="78.9"/>
	<line class="st3" x1="1467.6" y1="129.9" x2="1406.8" y2="129.9"/>
	<g>
		<path d="M1279.8,148.1v119.5h-32.5V148.1H1279.8 M1279.8,138.1h-32.5c-5.5,0-10,4.5-10,10v119.5c0,5.5,4.5,10,10,10h32.5
			c5.5,0,10-4.5,10-10V148.1C1289.8,142.5,1285.4,138.1,1279.8,138.1L1279.8,138.1z"/>
	</g>
	<line class="st3" x1="1036.8" y1="216.3" x2="1054.8" y2="216.3"/>
	<line class="st3" x1="1036.8" y1="249.9" x2="1054.8" y2="249.9"/>
	<g>
		<path d="M1469.7,207.8v119.5h-32.5V207.8H1469.7 M1469.7,197.8h-32.5c-5.5,0-10,4.5-10,10v119.5c0,5.5,4.5,10,10,10h32.5
			c5.5,0,10-4.5,10-10V207.8C1479.7,202.3,1475.3,197.8,1469.7,197.8L1469.7,197.8z"/>
	</g>
	<line class="st3" x1="1036.8" y1="418.1" x2="1054.8" y2="418.1"/>
	<line class="st3" x1="1036.8" y1="451.7" x2="1054.8" y2="451.7"/>
	<line class="st3" x1="1131.1" y1="418.1" x2="1171.6" y2="418.1"/>
	<line class="st3" x1="1131.1" y1="451.7" x2="1171.6" y2="451.7"/>
	<line class="st3" x1="1248.3" y1="418.1" x2="1275.3" y2="418.1"/>
	<line class="st3" x1="1248.3" y1="451.7" x2="1275.3" y2="451.7"/>
	<line class="st3" x1="1348.2" y1="418.1" x2="1366.2" y2="418.1"/>
	<line class="st3" x1="1348.2" y1="451.7" x2="1366.2" y2="451.7"/>
	<line class="st3" x1="1435.6" y1="418.1" x2="1461.1" y2="418.1"/>
	<line class="st3" x1="1435.6" y1="451.7" x2="1461.1" y2="451.7"/>
</g>
<g>
	<path class="st3" d="M1566.5,62.7h-46.9c-8.5,0-15.3,6.8-15.3,15.2v413.3c0,8.4,6.9,15.2,15.3,15.2h472.2c8.5,0,15.3-6.8,15.3-15.2
		V95c0-8.4-6.9-15.2-15.3-15.2h-64.1"/>
	<g>
		<path d="M1695.4,8.5c9.1,0,16.4,7.3,16.4,16.3v459.9c0,9-7.4,16.3-16.4,16.3h-85.5c-9.1,0-16.4-7.3-16.4-16.3V24.8
			c0-9,7.4-16.3,16.4-16.3H1695.4 M1695.4-1.5h-85.5c-14.6,0-26.5,11.8-26.5,26.3v459.9c0,14.5,11.9,26.3,26.5,26.3h85.5
			c14.6,0,26.5-11.8,26.5-26.3V24.8C1721.9,10.3,1710-1.5,1695.4-1.5L1695.4-1.5z"/>
	</g>
	<g>
		<path d="M1888.6,25.4c6.8,0,12.3,5.5,12.3,12.2v451.2c0,6.7-5.5,12.2-12.3,12.2h-59.1c-6.8,0-12.3-5.5-12.3-12.2V37.6
			c0-6.7,5.5-12.2,12.3-12.2L1888.6,25.4 M1888.6,15.4h-59.1c-12.3,0-22.4,10-22.4,22.2v451.2c0,12.2,10.1,22.2,22.4,22.2h59.1
			c12.3,0,22.4-10,22.4-22.2V37.6C1911,25.4,1900.9,15.4,1888.6,15.4L1888.6,15.4z"/>
	</g>
	<line class="st3" x1="1784" y1="45.9" x2="1718.5" y2="45.9"/>
	<line class="st3" x1="1674.1" y1="62.7" x2="1594.9" y2="62.7"/>
	<line class="st3" x1="1588.5" y1="111.9" x2="1540.1" y2="111.9"/>
	<path class="st4" d="M1817.3,78.9"/>
	<line class="st3" x1="1866.7" y1="78.9" x2="1817.3" y2="78.9"/>
	<line class="st3" x1="1970.3" y1="129.9" x2="1909" y2="129.9"/>
	<g>
		<path d="M1781,148.1v119.5h-32.8V148.1H1781 M1781,138.1h-32.8c-5.5,0-10.1,4.5-10.1,10v119.5c0,5.5,4.5,10,10.1,10h32.8
			c5.5,0,10.1-4.5,10.1-10V148.1C1791.1,142.5,1786.5,138.1,1781,138.1L1781,138.1z"/>
	</g>
	<line class="st3" x1="1536.1" y1="216.3" x2="1554.2" y2="216.3"/>
	<line class="st3" x1="1536.1" y1="249.9" x2="1554.2" y2="249.9"/>
	<g>
		<path d="M1972.4,207.8v119.5h-32.8V207.8H1972.4 M1972.4,197.8h-32.8c-5.5,0-10.1,4.5-10.1,10v119.5c0,5.5,4.5,10,10.1,10h32.8
			c5.5,0,10.1-4.5,10.1-10V207.8C1982.5,202.3,1977.9,197.8,1972.4,197.8L1972.4,197.8z"/>
	</g>
	<line class="st3" x1="1536.1" y1="418.1" x2="1554.2" y2="418.1"/>
	<line class="st3" x1="1536.1" y1="451.7" x2="1554.2" y2="451.7"/>
	<line class="st3" x1="1631" y1="418.1" x2="1671.8" y2="418.1"/>
	<line class="st3" x1="1631" y1="451.7" x2="1671.8" y2="451.7"/>
	<line class="st3" x1="1749.2" y1="418.1" x2="1776.5" y2="418.1"/>
	<line class="st3" x1="1749.2" y1="451.7" x2="1776.5" y2="451.7"/>
	<line class="st3" x1="1849.9" y1="418.1" x2="1868.1" y2="418.1"/>
	<line class="st3" x1="1849.9" y1="451.7" x2="1868.1" y2="451.7"/>
	<line class="st3" x1="1938" y1="418.1" x2="1963.6" y2="418.1"/>
	<line class="st3" x1="1938" y1="451.7" x2="1963.6" y2="451.7"/>
</g>
</svg>
